<?xml version="1.0" encoding="utf-8"?>
<svg xmlns="http://www.w3.org/2000/svg" viewBox="0 0 80 80" width="320" height="320">
  <path fill="#bae0bd" d="M5.5 71.5H12.5V75.5H5.5z" />
  <path fill="#5e9c76" d="M12,72v3H6v-3H12 M13,71H5v5h8V71L13,71z" />
  <path fill="#bae0bd" d="M67.5 71.5H74.5V75.5H67.5z" />
  <path fill="#5e9c76" d="M74,72v3h-6v-3H74 M75,71h-8v5h8V71L75,71z" />
  <path fill="#bae0bd" d="M40,76.5c-10.9,0-16.2-1.4-17.5-1.9v-3.1h35v3.1C56.2,75.1,50.8,76.5,40,76.5z" />
  <path fill="#5e9c76" d="M57,72v2.3c-1.7,0.5-7,1.7-17,1.7c-10,0-15.3-1.2-17-1.7V72H57 M58,71H22v4c0,0,5.1,2,18,2 s18-2,18-2V71L58,71z" />
  <path fill="#f5ce85" d="M40,73.5c-13.4,0-20.5-1.5-20.5-2.5V34c0-0.3-0.2-0.5-0.5-0.5c0,0,0,0,0,0c-0.3,0-0.5,0.2-0.5,0.5 c-0.1,1.4-3,34.3-3,37c0,0.8-2.4,1.6-6.3,1.6c-4.3,0-6.7-0.9-6.7-1.6c0-4.6,2.9-41.7,13.9-52.6c2.5-2.5,10.7-4.8,10.8-4.9 c0.2-0.1,0.4-0.3,0.4-0.5V6c0-1.3,6.5-2.4,12.5-2.5C46,3.6,52.5,4.7,52.5,6v7c0,0.2,0.1,0.4,0.4,0.5c0.1,0,8.8,2.7,11.2,5.2 C74.7,29.2,77.5,66.4,77.5,71c0,0.6-2.3,1.5-6.5,1.5s-6.5-0.9-6.5-1.5c0-2.7-2.9-36.6-3-38c0-0.3-0.2-0.5-0.5-0.5c0,0,0,0,0,0 c-0.3,0-0.5,0.2-0.5,0.5v38C60.5,72,53.4,73.5,40,73.5z" />
  <path fill="#967a44" d="M40,4c6.5,0.1,11.5,1.2,12,2v7c0,0.4,0.3,0.8,0.7,1c2.4,0.7,9.1,3.1,11,5 C74.1,29.4,77,66.1,77,70.9c-0.3,0.4-2.4,1.1-6,1.1c-3.6,0-5.7-0.7-6-1.1c0-3.2-2.9-36.6-3-38c0-0.5-0.5-0.9-1-0.9c0,0,0,0,0,0 c-0.5,0-1,0.5-1,1v37.9c-0.9,0.9-7.8,2.1-20,2.1s-19.1-1.3-20-2.1V34c0-0.5-0.4-1-1-1c0,0,0,0,0,0c-0.5,0-1,0.4-1,0.9 c-0.1,1.4-3,34.4-3,37c-0.2,0.4-2.2,1.1-5.8,1.1c-3.7,0-5.8-0.8-6.2-1.2c0-4.8,2.9-41.5,13.7-52.2c2-2,8.3-4.1,10.6-4.7 c0.4-0.1,0.7-0.5,0.7-1V6C28.5,5.2,33.5,4.1,40,4 M40,3c0,0-13,0.3-13,3s0,7,0,7s-8.4,2.4-11,5C4.5,29.5,2,68.3,2,71 c0,1.4,3.6,2.1,7.2,2.1c3.4,0,6.8-0.7,6.8-2.1c0-2.7,3-37,3-37s0,34.3,0,37c0,2,10.5,3,21,3s21-1,21-3c0-2.7,0-38,0-38 s3,35.3,3,38c0,1.4,3.5,2,7,2s7-0.7,7-2c0-2.7-2.4-41.6-13.6-52.7C61.9,15.7,53,13,53,13s0-4.3,0-7S40,3,40,3L40,3z" />
  <g>
    <path fill="#bae0bd" d="M37.5,21.5v-6l-0.5,0C31.6,15.2,26.5,14,26.5,13V6c0-1.5,7-2.5,13.5-2.5s13.5,1,13.5,2.5v7 c0,1-5.1,2.2-10.5,2.4l-0.5,0v6.1H37.5z" />
    <path fill="#5e9c76" d="M40,4L40,4c7,0,12.7,1.1,13,2v6.9c-0.6,0.8-5,1.8-10,2l-1,0v1V21h-4v-5.1v-1l-1,0 c-5-0.2-9.5-1.2-10-2L27,6C27.3,5.1,33,4,40,4 M40,3c0,0-14,0-14,3c0,2.6,0,4.4,0,7c0,1.8,6.9,2.8,11,2.9V22h6v-6.1 c4.1-0.2,11-1.1,11-2.9c0-2.6,0-4.4,0-7C54,3,40,3,40,3L40,3z" />
  </g>
  <g>
    <path fill="#bae0bd" d="M28.5,59.7c0.2-4,0.9-14.3,6.3-19c1.5-1.4,3.5-2.1,5.3-2.1c2.2,0,4.7,1.2,5,4.6l0,0.3l0.3,0.1 c2.7,1,4.3,2.4,4.8,4.1c0.5,1.8-0.3,4-2.3,6.2c-3,3.4-8.1,3.9-12.6,4.4C32.7,58.6,30.2,58.9,28.5,59.7z" />
    <path fill="#5e9c76" d="M40.1,39.1c2,0,4.2,1.1,4.5,4.1l0.1,0.6l0.6,0.2c2.5,0.9,4.1,2.2,4.5,3.8c0.4,1.6-0.3,3.7-2.2,5.8 c-2.9,3.3-7.9,3.8-12.3,4.3c-2.4,0.3-4.5,0.5-6.2,1.1c0.3-4.4,1.2-13.6,6.1-17.9C36.6,39.8,38.4,39.1,40.1,39.1 M40.1,38.1 c-1.9,0-3.9,0.8-5.6,2.3c-5.9,5.1-6.3,16.7-6.5,20.1c0,0,0,0.1-0.1,0.1c0,0.1,0,0.1,0,0.2c3.9-3,15-0.4,20.4-6.4 c3.8-4.3,3.7-8.9-2.7-11.1C45.3,39.7,42.9,38.1,40.1,38.1L40.1,38.1z" />
  </g>
  <path fill="#5e9c76" d="M35.9 52.7l-.9-.5c4.1-7.6 14.8-11.1 15.3-11.2l.3 1C50.5 42 39.9 45.5 35.9 52.7zM52 5c0 0-5.5-1.5-12.5-1.5S28 5 28 5c.7.7 2.2 1.3 5.4 1.7C36.6 7.1 39 10 39 14h2v-1c0-3.2 2.3-6 5.5-6.5C50.2 5.9 52 5 52 5z" />
</svg>