<?xml version="1.0" encoding="utf-8"?>
<svg xmlns="http://www.w3.org/2000/svg" viewBox="0 0 100 100" width="400" height="400">
  <path fill="#f9e65c" d="M64.5,48.5c-4.162-6.215-12-17-12-17s-3.969-2.042-6.753-6.609c-1.815-2.978-2.392-6.362-2.392-6.362l-0.002,0.002C42.671,15.093,39.639,12.5,36,12.5c-4.142,0-7.5,3.358-7.5,7.5s3.358,7.5,7.5,7.5c1.288,0,2.499-0.325,3.558-0.897L48.5,42.5l17,21c0,0,3-2,3-6C68.5,54.5,67.179,52.5,64.5,48.5z M36,23.5c-1.933,0-3.5-1.567-3.5-3.5s1.567-3.5,3.5-3.5s3.5,1.567,3.5,3.5S37.933,23.5,36,23.5z" />
  <path fill="#1f212b" d="M65.5,64c-0.146,0-0.29-0.064-0.389-0.186l-17-21l-8.756-15.551C38.309,27.746,37.158,28,36,28c-4.411,0-8-3.589-8-8s3.589-8,8-8c3.788,0,7.074,2.682,7.834,6.385c0.006,0.02,0.011,0.04,0.015,0.061c0.005,0.032,0.585,3.329,2.325,6.186c2.672,4.383,6.517,6.405,6.556,6.425c0.069,0.036,0.129,0.087,0.175,0.15c0.078,0.108,7.892,10.864,12.011,17.016l0,0C67.549,52.154,69,54.321,69,57.5c0,4.219-3.091,6.328-3.223,6.416C65.692,63.973,65.596,64,65.5,64z M39.558,26.104c0.175,0,0.344,0.092,0.436,0.255l8.942,15.896l16.645,20.55C66.334,62.158,68,60.402,68,57.5c0-2.875-1.309-4.829-3.915-8.722c-3.905-5.831-11.146-15.822-11.922-16.892c-0.679-0.372-4.241-2.469-6.843-6.736c-1.742-2.858-2.365-6.027-2.448-6.485c-0.004-0.012-0.007-0.024-0.009-0.036C42.216,15.367,39.329,13,36,13c-3.859,0-7,3.141-7,7s3.141,7,7,7c1.158,0,2.306-0.289,3.32-0.837C39.396,26.123,39.477,26.104,39.558,26.104z M36,24c-2.206,0-4-1.794-4-4s1.794-4,4-4s4,1.794,4,4S38.206,24,36,24z M36,17c-1.654,0-3,1.346-3,3s1.346,3,3,3s3-1.346,3-3S37.654,17,36,17z" />
  <path fill="#a1d3a2" d="M82,85H18c-2.209,0-4-1.791-4-4V49c0-2.209,1.791-4,4-4h64c2.209,0,4,1.791,4,4v32C86,83.209,84.209,85,82,85z" />
  <path fill="#60be92" d="M28.5,50.5h-5c0,2.761-1.791,5-4,5v19c2.209,0,4,2.239,4,5h53c0-2.761,1.791-5,4-5v-19c-2.209,0-4-2.239-4-5h-39l0-0.5h-9V50.5z" />
  <path fill="#1f212b" d="M76.5,80h-53c-0.276,0-0.5-0.224-0.5-0.5c0-2.481-1.57-4.5-3.5-4.5c-0.276,0-0.5-0.224-0.5-0.5v-19c0-0.276,0.224-0.5,0.5-0.5c1.93,0,3.5-2.019,3.5-4.5c0-0.276,0.224-0.5,0.5-0.5h5c0.276,0,0.5,0.224,0.5,0.5S28.776,51,28.5,51h-4.519c-0.192,2.598-1.868,4.68-3.981,4.966v18.068c2.113,0.286,3.789,2.368,3.981,4.966h52.037c0.192-2.598,1.868-4.68,3.981-4.966V55.966c-2.113-0.286-3.789-2.368-3.981-4.966H37.5c-0.276,0-0.5-0.224-0.5-0.5s0.224-0.5,0.5-0.5h39c0.276,0,0.5,0.224,0.5,0.5c0,2.481,1.57,4.5,3.5,4.5c0.276,0,0.5,0.224,0.5,0.5v19c0,0.276-0.224,0.5-0.5,0.5c-1.93,0-3.5,2.019-3.5,4.5C77,79.776,76.776,80,76.5,80z" />
  <path fill="#1f212b" d="M82,86H18c-2.757,0-5-2.243-5-5V49c0-2.757,2.243-5,5-5h64c2.757,0,5,2.243,5,5v32C87,83.757,84.757,86,82,86z M18,46c-1.654,0-3,1.346-3,3v32c0,1.654,1.346,3,3,3h64c1.654,0,3-1.346,3-3V49c0-1.654-1.346-3-3-3H18z" />
  <circle cx="50" cy="65" r="8.5" fill="#a1d3a2" />
  <circle cx="67" cy="65" r="3.5" fill="#a1d3a2" />
  <circle cx="33" cy="65" r="3.5" fill="#a1d3a2" />
  <path fill="#1f212b" d="M50,74c-4.963,0-9-4.037-9-9s4.037-9,9-9s9,4.037,9,9S54.963,74,50,74z M50,57c-4.411,0-8,3.589-8,8s3.589,8,8,8s8-3.589,8-8S54.411,57,50,57z" />
  <path fill="#1f212b" d="M67,69c-2.206,0-4-1.794-4-4s1.794-4,4-4s4,1.794,4,4S69.206,69,67,69z M67,62c-1.654,0-3,1.346-3,3s1.346,3,3,3s3-1.346,3-3S68.654,62,67,62z" />
  <path fill="#1f212b" d="M33,69c-2.206,0-4-1.794-4-4s1.794-4,4-4s4,1.794,4,4S35.206,69,33,69z M33,62c-1.654,0-3,1.346-3,3s1.346,3,3,3s3-1.346,3-3S34.654,62,33,62z" />
  <path fill="#1f212b" d="M35.5,51h-1c-0.276,0-0.5-0.224-0.5-0.5s0.224-0.5,0.5-0.5h1c0.276,0,0.5,0.224,0.5,0.5S35.776,51,35.5,51z" />
  <path fill="#fef6aa" d="M31.5,57.5c0,4,3,6,3,6l17-21l8.942-15.897C61.501,27.175,62.712,27.5,64,27.5c4.142,0,7.5-3.358,7.5-7.5s-3.358-7.5-7.5-7.5c-3.639,0-6.671,2.593-7.354,6.031l-0.002-0.002c0,0-0.577,3.384-2.392,6.362C51.469,29.458,47.5,31.5,47.5,31.5s-7.838,10.785-12,17C32.821,52.5,31.5,54.5,31.5,57.5z M60.5,20c0-1.933,1.567-3.5,3.5-3.5s3.5,1.567,3.5,3.5s-1.567,3.5-3.5,3.5S60.5,21.933,60.5,20z" />
  <path fill="#1f212b" d="M34.5,64c-0.096,0-0.192-0.027-0.277-0.084C34.091,63.828,31,61.719,31,57.5c0-3.179,1.451-5.346,4.085-9.278c4.119-6.151,11.933-16.907,12.011-17.016c0.046-0.063,0.105-0.114,0.175-0.15c0.039-0.02,3.884-2.042,6.556-6.425c1.744-2.863,2.32-6.152,2.325-6.186c0.004-0.021,0.009-0.042,0.015-0.062C56.926,14.682,60.212,12,64,12c4.411,0,8,3.589,8,8s-3.589,8-8,8c-1.158,0-2.309-0.254-3.355-0.736l-8.709,15.481L34.889,63.814C34.79,63.936,34.646,64,34.5,64z M47.837,31.887c-0.775,1.068-8.016,11.06-11.922,16.892C33.309,52.671,32,54.625,32,57.5c0,2.877,1.672,4.651,2.422,5.302l16.689-20.616l8.896-15.827c0.135-0.238,0.437-0.32,0.673-0.195C61.694,26.711,62.842,27,64,27c3.859,0,7-3.141,7-7s-3.141-7-7-7c-3.329,0-6.216,2.367-6.863,5.629c-0.002,0.012-0.005,0.024-0.009,0.036c-0.083,0.458-0.706,3.627-2.448,6.485C52.078,29.418,48.516,31.515,47.837,31.887z M64,24c-2.206,0-4-1.794-4-4s1.794-4,4-4s4,1.794,4,4S66.206,24,64,24z M64,17c-1.654,0-3,1.346-3,3s1.346,3,3,3s3-1.346,3-3S65.654,17,64,17z" />
  <circle cx="50" cy="36" r="1.5" fill="#fefdef" />
  <path fill="#1f212b" d="M50,38c-1.103,0-2-0.897-2-2s0.897-2,2-2s2,0.897,2,2S51.103,38,50,38z M50,35c-0.552,0-1,0.448-1,1s0.448,1,1,1s1-0.448,1-1S50.552,35,50,35z" />
</svg>