<?xml version="1.0" encoding="utf-8"?>
<svg xmlns="http://www.w3.org/2000/svg" viewBox="0 0 48 48" width="480" height="480">
  <rect width="6" height="13" x="6" y="29" fill="#3dd9eb" />
  <circle cx="6.5" cy="35.5" r="2.5" fill="#3dd9eb" />
  <g>
    <rect width="25" height="12" x="9" y="11.5" fill="#f5bc00" />
    <polygon fill="#eb7900" points="23,19 34,19 33.999,11.449 23,11" />
    <ellipse cx="21.5" cy="23.5" fill="#f5bc00" rx="12.5" ry="5.5" />
    <path fill="#fae56b" d="M37.5,42H9V29h29.09L44,23.5v12C44,39.09,41.09,42,37.5,42z" />
    <ellipse cx="21.5" cy="11.5" fill="#fae56b" rx="12.5" ry="5.5" />
    <ellipse cx="21.5" cy="11.5" fill="#eb7900" rx="4.5" ry="1.5" />
    <path fill="#f5bc00" d="M38,29H21.5V17H38c3.314,0,6,2.686,6,6v0C44,26.314,41.314,29,38,29z" />
    <rect width="3" height="13" x="9" y="29" fill="#00b3d7" />
    <rect width="3" height="7" x="15" y="35" fill="#f5bc00" />
    <rect width="3" height="3" x="21" y="39" fill="#f5bc00" />
    <rect width="3" height="7" x="27" y="35" fill="#f5bc00" />
    <rect width="3" height="3" x="33" y="39" fill="#f5bc00" />
  </g>
</svg>